{"title":"Fat Kid Rules the World (2012) x264 HE-AAC 5.1 Nl Subs DVDRip-NL","uid":10096552,"size":937405246,"categoryP":"video","categoryS":"movies","magnet":"?xt=urn:btih:2f888b3518c1e1fa6a35e721d854ea143ff6e925&amp;dn=Fat+Kid+Rules+the+World+%282012%29+x264+HE-AAC+5.1+Nl+Subs+DVDRip-NL&amp;tr=udp%3A%2F%2Ftracker.openbittorrent.com%3A80&amp;tr=udp%3A%2F%2Fopen.demonii.com%3A1337&amp;tr=udp%3A%2F%2Ftracker.coppersurfer.tk%3A6969&amp;tr=udp%3A%2F%2Fexodus.desync.com%3A6969","seeders":0,"leechers":1,"uploader":"NLUPPER002","files":-1,"time":1399310536,"description":"Fat Kid Rules the World (2012) x264 HE-AAC 5.1 Nl Subs DVDRip-NLU002\n.\nDutch Release Date: 04-2014\nRelease Info: http://www.bol.com/nl/p/fat-kid-rules-the-world/9200000024948521/\n.\n[URL=https://imageshack.com/i/n6emc7j][IMG]http://imagizer.imageshack.us/v2/xq90/834/emc7.jpg[/IMG][/URL]\n.\nR -  98 min  -  Comedy  -  9 March 2012 (USA) \n. &lt;a href=&quot;\nhttp://www.imdb.com/title/tt1995304/&quot; rel=&quot;nofollow&quot; target=&quot;_NEW&quot;&gt;\nhttp://www.imdb.com/title/tt1995304/&lt;/a&gt;\n. &lt;a href=&quot;\nhttp://www.moviemeter.nl/film/83426&quot; rel=&quot;nofollow&quot; target=&quot;_NEW&quot;&gt;\nhttp://www.moviemeter.nl/film/83426&lt;/a&gt;\n.\nPLOT\n.\nA dropout comes to the aid of a chubby and suicidal high-school kid by recruiting him as the drummer for his upstart punk-rock band.\n.\nSource: Retail DVD5\nFormat: MP4\nAudio: English HE-AAC 5.1\nRetail Subtitles: Dutch. (srt file)\n.\nVideo: Info:\n.\nFormat settings, ReFrames                : 6 frames\nCodec ID                                 : avc1\nCodec ID/Info                            : Advanced Video Coding\nDuration                                 : 1h 35mn\nBit rate mode                            : Variable\nBit rate                                 : 959 Kbps\nWidth                                    : 720 pixels\nHeight                                   : 576 pixels\nDisplay aspect ratio                     : 16:9\nFrame rate mode                          : Constant\nFrame rate                               : 25.000 fps\nStandard                                 : NTSC\nColor space                              : YUV\nChroma subsampling                       : 4:2:0\nBit depth                                : 8 bits\nScan type                                : MBAFF\nBits/(Pixel*Frame)                       : 0.092\nStream size                              : 631 MiB (71%)\nWriting library                          : x264 core 136\nEncoding settings                        : cabac=1 / ref=6 / deblock=1:0:0 / analyse=0x3:0x113 / me=hex / subme=7 / psy=1 / psy_rd=1.00:0.00 / mixed_ref=1 / me_range=16 / chroma_me=1 / trellis=1 / 8x8dct=1 / cqm=2 / deadzone=21,11 / fast_pskip=1 / chroma_qp_offset=-4 / threads=12 / lookahead_threads=2 / sliced_threads=0 / slices=1 / nr=0 / decimate=1 / interlaced=tff / bluray_compat=0 / constrained_intra=0 / bframes=3 / b_pyramid=0 / b_adapt=1 / b_bias=0 / direct=1 / weightb=1 / open_gop=0 / weightp=0 / keyint=250 / keyint_min=25 / scenecut=40 / intra_refresh=0 / rc_lookahead=40 / rc=2pass / mbtree=1 / bitrate=958 / ratetol=1.0 / qcomp=0.60 / qpmin=5 / qpmax=69 / qpstep=4 / cplxblur=20.0 / qblur=0.5 / vbv_maxrate=959 / vbv_bufsize=959 / nal_hrd=vbr / ip_ratio=1.40 / aq=1:1.00\n.\nAudio: Info:\n.\nFormat profile                           : HE-AAC / LC\nCodec ID                                 : 40\nDuration                                 : 1h 35mn\nBit rate mode                            : Variable\nBit rate                                 : 384 Kbps\nMaximum bit rate                         : 720 Kbps\nChannel(s)                               : 2 channels\nChannel(s)_Original                      : 6 channels\nChannel positions                        : Front: L C R, Side: L R, LFE\nSampling rate                            : 48.0 KHz / 24.0 KHz\nCompression mode                         : Lossy\nStream size                              : 260 MiB (29%)\n.\nScreens:\n. &lt;a href=&quot;\nhttp://imagizer.imageshack.us/v2/xq90/836/a6of.jpg&quot; rel=&quot;nofollow&quot; target=&quot;_NEW&quot;&gt;\nhttp://imagizer.imageshack.us/v2/xq90/836/a6of.jpg&lt;/a&gt; &lt;a href=&quot;\nhttp://imagizer.imageshack.us/v2/xq90/845/dy0l.jpg&quot; rel=&quot;nofollow&quot; target=&quot;_NEW&quot;&gt;\nhttp://imagizer.imageshack.us/v2/xq90/845/dy0l.jpg&lt;/a&gt; &lt;a href=&quot;\nhttp://imagizer.imageshack.us/v2/xq90/834/dmh6.jpg&quot; rel=&quot;nofollow&quot; target=&quot;_NEW&quot;&gt;\nhttp://imagizer.imageshack.us/v2/xq90/834/dmh6.jpg&lt;/a&gt; &lt;a href=&quot;\nhttp://imagizer.imageshack.us/v2/xq90/845/idqu.jpg&quot; rel=&quot;nofollow&quot; target=&quot;_NEW&quot;&gt;\nhttp://imagizer.imageshack.us/v2/xq90/845/idqu.jpg&lt;/a&gt; &lt;a href=&quot;\nhttp://imagizer.imageshack.us/v2/xq90/841/m5ow.jpg&quot; rel=&quot;nofollow&quot; target=&quot;_NEW&quot;&gt;\nhttp://imagizer.imageshack.us/v2/xq90/841/m5ow.jpg&lt;/a&gt; &lt;a href=&quot;\nhttp://imagizer.imageshack.us/v2/xq90/836/tdd4.jpg&quot; rel=&quot;nofollow&quot; target=&quot;_NEW&quot;&gt;\nhttp://imagizer.imageshack.us/v2/xq90/836/tdd4.jpg&lt;/a&gt; &lt;a href=&quot;\nhttp://imagizer.imageshack.us/v2/xq90/835/j4bf.jpg&quot; rel=&quot;nofollow&quot; target=&quot;_NEW&quot;&gt;\nhttp://imagizer.imageshack.us/v2/xq90/835/j4bf.jpg&lt;/a&gt;\n.\nEnjoy\n.\nThnaks to a friendly bird: Parkietje","torrent":{"xt":"urn:btih:2f888b3518c1e1fa6a35e721d854ea143ff6e925","amp;dn":"Fat+Kid+Rules+the+World+%282012%29+x264+HE-AAC+5.1+Nl+Subs+DVDRip-NL","amp;tr":["udp%3A%2F%2Ftracker.openbittorrent.com%3A80","udp%3A%2F%2Fopen.demonii.com%3A1337","udp%3A%2F%2Ftracker.coppersurfer.tk%3A6969","udp%3A%2F%2Fexodus.desync.com%3A6969"],"infoHash":"2f888b3518c1e1fa6a35e721d854ea143ff6e925","infoHashBuffer":{"type":"Buffer","data":[47,136,139,53,24,193,225,250,106,53,231,33,216,84,234,20,63,246,233,37]},"announce":[],"urlList":[]}}